HIERARCHY
ROOT SpineBase
{
  OFFSET 0.000000 0.000000 0.000000
  CHANNELS 6 Xposition Yposition Zposition Zrotation Xrotation Yrotation
  JOINT SpineMid
  {
    OFFSET -0.000000 28.195503 0.000000
    CHANNELS 3 Zrotation Xrotation Yrotation
    JOINT SpineShoulder
    {
      OFFSET -0.063876 20.835832 -0.664138
      CHANNELS 3 Zrotation Xrotation Yrotation
      JOINT Neck
      {
        OFFSET -0.024098 6.851000 -0.492956
        CHANNELS 3 Zrotation Xrotation Yrotation
        JOINT Head
        {
          OFFSET 1.889142 14.103616 0.033859
          CHANNELS 3 Zrotation Xrotation Yrotation
          End Site
          {
            OFFSET 0 0 0
          }
        }
      }
      JOINT ShoulderLeft
      {
        OFFSET -17.640409 -3.605732 -2.149243
        CHANNELS 3 Zrotation Xrotation Yrotation
        JOINT ElbowLeft
        {
          OFFSET -6.150601 -26.358951 2.724186
          CHANNELS 3 Zrotation Xrotation Yrotation
          JOINT WristLeft
          {
            OFFSET 3.074811 -18.410168 -9.630933
            CHANNELS 3 Zrotation Xrotation Yrotation
            JOINT HandLeft
            {
              OFFSET 2.346928 -3.501069 -1.357251
              CHANNELS 3 Zrotation Xrotation Yrotation
              JOINT HandTipLeft
              {
                OFFSET 1.683217 -7.095168 -2.342040
                CHANNELS 3 Zrotation Xrotation Yrotation
                End Site
                {
                  OFFSET 0 0 0
                }
              }
              JOINT ThumbLeft
              {
                OFFSET -2.917029 -2.191543 -1.786547
                CHANNELS 3 Zrotation Xrotation Yrotation
                End Site
                {
                  OFFSET 0 0 0
                }
              }
            }
          }
        }
      }
      JOINT ShoulderRight
      {
        OFFSET 18.670006 -5.470210 2.346589
        CHANNELS 3 Zrotation Xrotation Yrotation
        JOINT ElbowRight
        {
          OFFSET 3.331566 -25.790958 3.358071
          CHANNELS 3 Zrotation Xrotation Yrotation
          JOINT WristRight
          {
            OFFSET -2.717309 -20.231634 -7.237590
            CHANNELS 3 Zrotation Xrotation Yrotation
            JOINT HandRight
            {
              OFFSET -3.598944 -4.866152 -3.093169
              CHANNELS 3 Zrotation Xrotation Yrotation
              JOINT HandTipRight
              {
                OFFSET -0.734848 -4.168797 -2.392890
                CHANNELS 3 Zrotation Xrotation Yrotation
                End Site
                {
                  OFFSET 0 0 0
                }
              }
              JOINT ThumbRight
              {
                OFFSET -2.014922 2.228752 -1.256043
                CHANNELS 3 Zrotation Xrotation Yrotation
                End Site
                {
                  OFFSET 0 0 0
                }
              }
            }
          }
        }
      }
    }
  }
  JOINT HipLeft
  {
    OFFSET -6.602989 0.309747 -4.172284
    CHANNELS 3 Zrotation Xrotation Yrotation
    JOINT KneeLeft
    {
      OFFSET -4.598599 -40.774097 4.420454
      CHANNELS 3 Zrotation Xrotation Yrotation
      JOINT AnkleLeft
      {
        OFFSET 0.215341 -34.592489 11.900604
        CHANNELS 3 Zrotation Xrotation Yrotation
        JOINT FootLeft
        {
          OFFSET -1.676585 -9.233872 -3.555882
          CHANNELS 3 Zrotation Xrotation Yrotation
          End Site
          {
            OFFSET 0 0 0
          }
        }
      }
    }
  }
  JOINT HipRight
  {
    OFFSET 6.667525 -0.085101 -2.611674
    CHANNELS 3 Zrotation Xrotation Yrotation
    JOINT KneeRight
    {
      OFFSET 1.016777 -40.833603 4.577129
      CHANNELS 3 Zrotation Xrotation Yrotation
      JOINT AnkleRight
      {
        OFFSET -0.713381 -32.900817 9.735518
        CHANNELS 3 Zrotation Xrotation Yrotation
        JOINT FootRight
        {
          OFFSET 1.256148 -4.351879 -14.246295
          CHANNELS 3 Zrotation Xrotation Yrotation
          End Site
          {
            OFFSET 0 0 0
          }
        }
      }
    }
  }
}
MOTION
Frames: 5
Frame Time: 0.033333
-4.557188 84.215235 376.557713 -5.949402 -2.679570 0.946517 -0.503440 -0.160778 -1.297938 -0.141523 -0.191374 -0.277630 10.314793 -1.445861 0.857630 0.000000 0.000000 0.000000 7.631959 2.795736 0.433193 -3.924888 -8.830508 -0.450471 -6.407238 3.413825 0.601635 4.164662 -7.061612 -1.721494 0.000000 0.000000 0.000000 0.000000 0.000000 0.000000 4.806220 5.400762 0.510344 -7.283310 -2.035901 2.781003 10.656442 -16.463694 8.309736 -10.914471 3.122005 -1.113628 0.000000 0.000000 0.000000 0.000000 0.000000 0.000000 5.798022 -0.461010 -0.890433 0.193615 6.875146 -0.303398 0.944904 17.701942 -4.179588 0.000000 0.000000 0.000000 8.584294 6.096678 -1.045227 1.660025 -2.368001 0.980406 -8.754722 -37.556123 2.925533 0.000000 0.000000 0.000000
-4.555129 84.168498 376.575577 -6.094238 -2.672810 1.048392 -0.471992 -0.057097 -1.401161 -0.145859 -0.106382 -0.277502 10.041237 -1.538680 0.874765 0.000000 0.000000 0.000000 7.607614 2.672604 0.427775 -4.475408 -8.854066 -0.085490 -6.902771 2.673759 0.194772 4.562598 -6.632380 -1.575647 0.000000 0.000000 0.000000 0.000000 0.000000 0.000000 4.354096 5.493927 0.530371 -7.638372 -2.389952 3.076749 11.867414 -15.574224 6.953260 -12.717487 -0.905345 0.947911 0.000000 0.000000 0.000000 0.000000 0.000000 0.000000 5.871762 -0.513949 -1.000036 0.325374 6.962234 -0.285239 1.185324 22.583401 -5.188937 0.000000 0.000000 0.000000 8.577295 6.089690 -1.157880 1.977196 -2.445053 1.061569 -8.287274 -30.812366 4.017624 0.000000 0.000000 0.000000
-4.658571 84.134985 376.575270 -6.203154 -2.519593 1.389722 -0.419511 0.107655 -1.730007 -0.155660 0.003506 -0.273959 10.204737 -1.413573 0.835721 0.000000 0.000000 0.000000 7.594484 2.499119 0.395738 -4.217551 -8.992956 -0.088173 -9.463806 2.944274 1.898525 7.411216 -9.668517 -4.053242 0.000000 0.000000 0.000000 0.000000 0.000000 0.000000 4.436673 5.479014 0.602939 -7.574310 -2.643974 2.925646 10.084514 -14.681559 7.025990 -9.524485 -0.815341 -1.077659 0.000000 0.000000 0.000000 0.000000 0.000000 0.000000 5.948195 -0.693024 -1.332021 0.541834 6.890592 -0.232566 1.444980 27.385275 -6.299390 0.000000 0.000000 0.000000 8.662376 5.929913 -1.480738 2.145334 -2.740652 1.125078 -8.056204 -26.366577 4.219007 0.000000 0.000000 0.000000
-4.807125 84.102004 376.548601 -6.327121 -2.295807 1.746086 -0.331512 0.252514 -2.070982 -0.164359 0.093421 -0.270855 10.634117 -1.037179 0.750703 0.000000 0.000000 0.000000 7.990912 2.646953 0.307178 -4.820734 -9.131172 0.195072 -10.553107 3.166737 2.878266 9.031880 -11.234899 -5.577082 0.000000 0.000000 0.000000 0.000000 0.000000 0.000000 5.146357 5.536860 0.732538 -8.740331 -3.330744 2.832284 11.119359 -13.539200 5.664025 -10.513148 -1.606054 0.261793 0.000000 0.000000 0.000000 0.000000 0.000000 0.000000 6.041051 -0.920967 -1.673809 0.779789 6.859139 -0.170036 1.664053 34.710720 -7.872346 0.000000 0.000000 0.000000 8.779465 5.729016 -1.806756 2.482210 -2.978552 1.249056 -8.313593 -24.550335 4.747032 0.000000 0.000000 0.000000
-5.039984 84.111253 376.458464 -6.402956 -1.791033 2.238410 -0.081583 0.559588 -2.516835 -0.140855 0.291423 -0.252020 11.267927 -1.184508 0.719004 0.000000 0.000000 0.000000 8.200549 2.491237 0.192289 -5.828528 -9.266607 0.724098 -10.616490 3.476785 3.434458 9.654206 -11.218352 -6.257471 0.000000 0.000000 0.000000 0.000000 0.000000 0.000000 6.217474 5.222263 0.945086 -10.792791 -4.412597 2.657620 12.950071 -12.421478 4.016877 -10.598263 -3.095334 0.924616 0.000000 0.000000 0.000000 0.000000 0.000000 0.000000 6.071601 -1.335416 -2.130571 1.163424 6.557329 -0.054941 1.089428 33.319920 -7.592523 0.000000 0.000000 0.000000 8.908771 5.236726 -2.218286 2.755790 -3.307138 1.371241 -8.695526 -24.860553 4.778985 0.000000 0.000000 0.000000
